<?xml version="1.0" encoding="utf-8"?>
<svg version="1.1" id="Layer_1" xmlns="http://www.w3.org/2000/svg" xmlns:xlink="http://www.w3.org/1999/xlink" x="0px" y="0px"
	 viewBox="-289 381 32 32" style="enable-background:new -289 381 32 32;" xml:space="preserve">
<style type="text/css">
	.st0{fill:#6FDA44;}
</style>
<path class="st0" d="M-273,413c-8.8,0-16-7.2-16-16s7.2-16,16-16s16,7.2,16,16S-264.2,413-273,413z M-277.1,390
	c-1.1,0-2.4,0.2-3.6,1.1c-0.9,0.7-1.3,1.7-1.3,2.6c0,1.5,1.2,3.1,3.3,3.1c0.2,0,0.4,0,0.6,0c-0.1,0.2-0.2,0.4-0.2,0.8
	c0,0.6,0.3,1,0.6,1.3c-0.9,0.1-2.6,0.2-3.8,0.9c-1.2,0.7-1.5,1.7-1.5,2.4c0,1.5,1.4,2.8,4.3,2.8c3.4,0,5.3-1.9,5.3-3.7
	c0-1.4-0.8-2-1.7-2.8l-0.7-0.6c-0.2-0.2-0.5-0.4-0.5-0.8c0-0.4,0.3-0.7,0.6-1c0.8-0.6,1.7-1.4,1.7-2.8c0-1.5-1-2.3-1.4-2.7h1.2
	l1.3-0.7H-277.1z M-263,397h-3v-3h-2v3h-3v2h3v3h2v-3h3V397z M-277.7,396.3c-1.7,0-2.5-2.2-2.5-3.5c0-0.5,0.1-1,0.4-1.4
	c0.3-0.4,0.9-0.7,1.4-0.7c1.7,0,2.5,2.2,2.5,3.6c0,0.4,0,1-0.5,1.4C-276.7,396-277.2,396.3-277.7,396.3z M-277,399.4
	c1.5,1.1,2.2,1.6,2.2,2.6c0,1.2-1,2.1-2.9,2.1c-2.1,0-3.5-1-3.5-2.4c0-1.4,1.3-1.9,1.7-2c0.8-0.3,1.9-0.3,2.1-0.3
	C-277.2,399.4-277.1,399.4-277,399.4z"/>
</svg>
