<?xml version="1.0" encoding="utf-8"?>
<svg version="1.1" id="Layer_1" xmlns="http://www.w3.org/2000/svg" xmlns:xlink="http://www.w3.org/1999/xlink" x="0px" y="0px"
	 viewBox="-268 367 60 60" style="enable-background:new -268 367 60 60;" xml:space="preserve">
<style type="text/css">
	.st0{fill:#6FDA44;}
</style>
<path class="st0" d="M-221.2,411.1v-11.7c0-6.3-3.4-9.2-7.8-9.2c-3.6,0-5.2,2-6.1,3.4v-2.9h-6.8c0.1,1.9,0,20.4,0,20.4h6.8v-11.4
	c0-0.6,0-1.2,0.2-1.7c0.5-1.2,1.6-2.5,3.5-2.5c2.5,0,3.4,1.9,3.4,4.6v10.9L-221.2,411.1L-221.2,411.1z M-249,387.9
	c2.4,0,3.8-1.6,3.8-3.5c0-2-1.5-3.5-3.8-3.5s-3.8,1.5-3.8,3.5C-252.8,386.4-251.4,387.9-249,387.9L-249,387.9z M-238,427
	c-16.6,0-30-13.4-30-30c0-16.6,13.4-30,30-30s30,13.4,30,30C-208,413.6-221.4,427-238,427z M-245.6,411.1v-20.4h-6.8v20.4H-245.6z"
	/>
</svg>
