<?xml version="1.0" encoding="utf-8"?>
<svg version="1.1" id="Layer_1" xmlns="http://www.w3.org/2000/svg" xmlns:xlink="http://www.w3.org/1999/xlink" x="0px" y="0px"
	 viewBox="0 0 180.3 38.5" enable-background="new 0 0 180.3 38.5" xml:space="preserve">
<g>
	<g>
		<path fill="#FFFFFF" d="M8.6,3.1v15.3c0,5.1,2.1,7.5,5.4,7.5c3.5,0,5.5-2.4,5.5-7.5V3.1h4.8v15c0,8.1-4.2,11.7-10.5,11.7
			c-6.1,0-10-3.4-10-11.7V3.1H8.6z"/>
		<path fill="#FFFFFF" d="M26.2,16.7c0-2.5-0.1-4.5-0.2-6.3h4.2l0.2,2.9h0.1c1.4-2.1,3.6-3.4,6.5-3.4c4.4,0,8,3.7,8,9.7
			c0,6.9-4.3,10.2-8.7,10.2c-2.4,0-4.4-1-5.3-2.5H31v9.8h-4.8V16.7z M31,21.4c0,0.5,0,0.9,0.1,1.3c0.5,2,2.2,3.4,4.3,3.4
			c3,0,4.8-2.5,4.8-6.3c0-3.4-1.6-6.1-4.7-6.1c-2,0-3.8,1.4-4.3,3.5c-0.1,0.4-0.2,0.8-0.2,1.2V21.4z"/>
		<path fill="#4C4B4D" d="M50.8,10.3l2,8.6c0.5,2,0.9,4.1,1.2,6.2h0.1c0.4-2.1,1-4.2,1.5-6.1l2.5-8.7H62l2.4,8.4
			c0.6,2.2,1.1,4.3,1.5,6.4H66c0.3-2.1,0.7-4.1,1.2-6.4l2.1-8.4h4.7l-6,19h-4.4l-2.3-7.7c-0.6-2-1-3.8-1.4-6.1h-0.1
			c-0.4,2.3-0.9,4.2-1.4,6.1L56,29.3h-4.5l-5.6-19H50.8z"/>
		<path fill="#4C4B4D" d="M91.5,24.8c0,1.7,0.1,3.4,0.3,4.6h-4.3l-0.4-2.1H87c-1.1,1.5-3.1,2.5-5.6,2.5c-3.8,0-6-2.8-6-5.7
			c0-4.8,4.3-7.2,11.3-7.2v-0.3c0-1.2-0.5-3.3-3.9-3.3c-1.9,0-3.8,0.6-5.1,1.4l-0.9-3.1c1.4-0.9,3.9-1.7,6.9-1.7
			c6.1,0,7.8,3.9,7.8,8V24.8z M86.8,20.1c-3.4,0-6.6,0.7-6.6,3.5c0,1.9,1.2,2.7,2.7,2.7c2,0,3.3-1.2,3.8-2.6
			c0.1-0.4,0.1-0.7,0.1-1.1V20.1z"/>
		<path fill="#4C4B4D" d="M101.6,5.5v4.9h4.6v3.6h-4.6v8.4c0,2.3,0.6,3.5,2.5,3.5c0.9,0,1.3,0,1.9-0.2l0.1,3.6
			c-0.7,0.3-2,0.5-3.5,0.5c-1.8,0-3.2-0.6-4.1-1.6c-1.1-1.1-1.5-2.8-1.5-5.3v-8.9h-2.7v-3.6h2.7V6.8L101.6,5.5z"/>
		<path fill="#4C4B4D" d="M123.3,28.8c-1,0.5-3,1-5.4,1c-5.9,0-9.8-3.8-9.8-9.7c0-5.7,3.9-10.1,10.6-10.1c1.8,0,3.5,0.4,4.6,0.9
			l-0.9,3.6c-0.8-0.4-1.9-0.7-3.6-0.7c-3.7,0-5.9,2.7-5.8,6.2c0,3.9,2.5,6.1,5.8,6.1c1.6,0,2.8-0.4,3.8-0.7L123.3,28.8z"/>
		<path fill="#4C4B4D" d="M126.7,1.7h4.8v11.3h0.1c0.6-0.9,1.4-1.6,2.4-2.1c1-0.5,2.1-0.9,3.3-0.9c3.2,0,6.6,2.1,6.6,8.2v11.2h-4.8
			V18.7c0-2.7-1-4.8-3.7-4.8c-1.9,0-3.2,1.2-3.7,2.7c-0.2,0.4-0.2,0.9-0.2,1.4v11.4h-4.8V1.7z"/>
		<path fill="#4C4B4D" d="M152.2,21.2c0.1,3.4,2.8,4.9,5.9,4.9c2.2,0,3.8-0.4,5.3-0.9l0.7,3.3c-1.6,0.7-3.9,1.2-6.6,1.2
			c-6.2,0-9.8-3.8-9.8-9.6c0-5.3,3.2-10.2,9.3-10.2c6.2,0,8.2,5.1,8.2,9.2c0,0.9-0.1,1.6-0.2,2H152.2z M160.6,17.8
			c0-1.8-0.7-4.6-3.9-4.6c-3,0-4.2,2.7-4.4,4.6H160.6z"/>
		<path fill="#4C4B4D" d="M168.7,16.5c0-2.6,0-4.4-0.2-6.1h4.1l0.2,3.6h0.1c0.9-2.7,3.2-4,5.2-4c0.5,0,0.7,0,1.1,0.1v4.5
			c-0.4-0.1-0.9-0.1-1.4-0.1c-2.3,0-3.9,1.4-4.3,3.6c-0.1,0.4-0.1,0.9-0.1,1.4v9.9h-4.8V16.5z"/>
	</g>
</g>
</svg>
