<?xml version="1.0" encoding="utf-8"?>
<!-- Generator: Adobe Illustrator 18.1.1, SVG Export Plug-In . SVG Version: 6.00 Build 0)  -->
<svg version="1.1" id="Layer_1" xmlns="http://www.w3.org/2000/svg" xmlns:xlink="http://www.w3.org/1999/xlink" x="0px" y="0px"
	 viewBox="0 335 612 117" enable-background="new 0 335 612 117" xml:space="preserve">
<g>
	<path fill="#4B4B4B" d="M548.7,353.2c4.3,0,8.7,0,13,0c0,27,0,53.7,0,80.6c-4.3,0-8.7,0-13,0C548.7,407.1,548.7,380.1,548.7,353.2
		L548.7,353.2z"/>
	<path fill="#4B4B4B" d="M327.1,353.4c6.7-1,14,0.5,19.5,4.3c6.5,4.1,11.3,10.8,13,18.3c1.9,7.9,0.2,16.6-4.3,23.3
		c-7.2,10.8-21.9,15.9-34.2,11.3c-7.9-2.9-14.7-9.1-17.8-17.1c-3.4-8.2-2.6-17.6,1.4-25.3C309,360.4,317.7,354.6,327.1,353.4
		L327.1,353.4z M327.5,365.2c-4.3,1-8.2,3.4-10.8,6.7c-5.8,7-4.8,18,1.9,24.1c6,6,16.6,6.3,23.1,1c6.7-5.3,8.4-15.4,4.3-22.9
		C342.7,367.6,334.8,363.8,327.5,365.2L327.5,365.2z"/>
	<path fill="#4B4B4B" d="M367,353.2c11.3,0.2,22.6-0.7,33.7,1.4c7.5,1.4,14.7,5.1,20,10.8c7,7.7,10.6,17.8,10.8,28.2
		c0,15.2-8.9,30.8-23.3,36.6c-6.5,2.6-13.5,3.4-20.5,3.4c-6.7,0.2-13.7,0-20.5,0C367,407.1,367,380.1,367,353.2L367,353.2z
		 M380.5,366.2c0,18.3,0,36.3,0,54.6c7.2,0,14.7,0.2,21.7-2.6c6.3-2.6,11.3-7.9,13.7-14.2c3.4-8.2,2.4-17.6-2.2-25
		c-2.9-4.8-7.5-8.4-12.8-10.3C394.4,366.2,387.5,366.4,380.5,366.2L380.5,366.2z"/>
	<path fill="#4B4B4B" d="M501.5,378.9c3.9-4.1,9.6-6,15.4-6.5c8.7-0.5,17.3,2.6,24.5,7.2c-2.2,3.1-4.6,6.3-7,9.4
		c-4.6-2.9-9.9-5.1-15.4-5.3c-2.6,0-5.3,0.2-7.5,1.9c-1.7,1.2-2.4,3.9-1.4,5.8c1,1.9,3.1,2.9,4.8,3.9c6.7,2.9,14.2,3.9,20.2,8.2
		c3.4,2.2,6,5.3,6.7,9.4c1.2,6-0.5,12.8-5.1,17.1c-4.3,4.1-10.3,5.5-15.9,5.8c-10.1,0.2-20-3.1-27.9-9.4c2.2-3.1,4.6-6.3,6.7-9.6
		c6,4.6,13.5,7.9,21.2,7.5c3.1-0.2,7-1.4,7.9-4.8c1-2.4-0.7-5.3-2.9-6.3c-6.5-3.4-14-4.1-20.5-7.5c-3.9-1.9-7.2-5.1-8.4-9.1
		C495.8,390.5,497,383.5,501.5,378.9L501.5,378.9z"/>
	<path fill="#4B4B4B" d="M582.9,373.9c5.1,0,10.1,0,15.4,0c-7.2,9.9-14.4,19.5-21.7,29.4c8.4,10.1,16.8,20.5,25.3,30.6
		c-5.8,0-11.8,0-17.6,0c-7.2-9.9-14.7-20-21.9-29.8C569.2,393.8,576.1,384,582.9,373.9L582.9,373.9z"/>
	<path fill="#4B4B4B" d="M448.1,377.5c7.7-5.1,17.8-6,26.5-3.1c6,1.9,11.1,6.5,14.2,12.3c3.6,6.7,4.8,14.4,4.3,21.9
		c-14.7,0-29.4,0-44,0c0.7,3.6,1.9,7.2,4.3,10.1c4.1,4.6,11.3,6.3,17.1,4.6c3.6-1,6.3-3.6,8.2-6.7c4.3,0,8.9,0.2,13.2,0.2
		c-2.6,7.9-9.6,14.4-17.6,17.1c-6,2.2-12.8,1.7-18.8,0c-7-1.9-13.2-6.7-16.8-13.2c-3.9-6.7-4.8-14.9-3.6-22.6
		C436.6,389.5,441.1,381.8,448.1,377.5L448.1,377.5z M454.6,387.8c-3.1,2.9-4.6,7-5.5,11.1c9.9,0,19.7,0,29.8,0
		c-0.5-3.9-1.9-7.9-4.8-10.8C469,382.8,459.7,382.8,454.6,387.8L454.6,387.8z"/>
	<path fill="#4B4B4B" d="M320.8,418.1c8.2-3.1,17.6-1.9,25,2.6c5.1,3.1,8.9,7.7,11.1,13.2c-17.6,0-35.1,0-52.7,0
		C307.3,426.6,313.6,420.8,320.8,418.1L320.8,418.1z"/>
</g>
<g enable-background="new    ">
	<path fill="#FFFFFF" d="M34.6,433.9L18.7,369h12.6l6.2,29.5c1.6,7.9,3.2,16.2,4.2,22.6h0.2c1.1-6.8,2.9-14.5,4.7-22.7l7-29.4H66
		l6.5,29.8c1.5,7.7,3,14.9,3.9,21.9h0.2c1.2-7.1,2.7-14.5,4.4-22.5l6.7-29.3h12l-17.5,64.9H69.7L63,403.3
		c-1.6-7.4-2.8-13.6-3.7-20.6h-0.2c-1.1,6.9-2.3,13.2-4.2,20.6l-7.5,30.5H34.6z"/>
	<path fill="#FFFFFF" d="M140,422.6c0,4.2,0.2,8.4,0.8,11.3H130l-0.9-5.2h-0.3c-2.8,3.7-7.7,6.3-13.9,6.3c-9.4,0-14.7-6.8-14.7-14
		c0-11.7,10.5-17.8,27.8-17.7v-0.8c0-3.1-1.3-8.2-9.5-8.2c-4.6,0-9.4,1.4-12.6,3.5l-2.3-7.7c3.5-2.1,9.5-4.1,16.9-4.1
		c15,0,19.3,9.5,19.3,19.8V422.6z M128.4,410.9c-8.4-0.1-16.4,1.6-16.4,8.8c0,4.6,3,6.7,6.7,6.7c4.8,0,8.2-3.1,9.3-6.4
		c0.3-0.9,0.3-1.7,0.3-2.6V410.9z"/>
	<path fill="#FFFFFF" d="M165.5,374.9v12h11.3v8.9h-11.3v20.7c0,5.8,1.5,8.7,6.1,8.7c2.1,0,3.3-0.1,4.6-0.5l0.2,9
		c-1.7,0.7-4.9,1.3-8.6,1.3c-4.4,0-8-1.4-10.2-3.9c-2.6-2.7-3.8-7-3.8-13.2v-22h-6.6V387h6.6v-8.8L165.5,374.9z"/>
	<path fill="#FFFFFF" d="M219.6,432.4c-2.5,1.2-7.4,2.4-13.3,2.4c-14.6,0-24.2-9.4-24.2-24c0-14.1,9.6-24.9,26.1-24.9
		c4.3,0,8.8,1,11.5,2.1l-2.1,9c-1.9-1-4.7-1.8-9-1.8c-9,0-14.4,6.6-14.3,15.2c0,9.6,6.3,15.1,14.3,15.1c4,0,7-0.9,9.3-1.8
		L219.6,432.4z"/>
	<path fill="#FFFFFF" d="M228.3,365.5h11.8v27.8h0.2c1.4-2.2,3.5-4,5.9-5.3c2.4-1.3,5.2-2.1,8.2-2.1c8,0,16.4,5.3,16.4,20.3v27.6
		h-11.8v-26.4c0-6.7-2.5-11.9-9-11.9c-4.6,0-7.9,3.1-9.2,6.6c-0.4,1.1-0.5,2.3-0.5,3.6v28.1h-11.8V365.5z"/>
</g>
</svg>
