<?xml version="1.0" encoding="utf-8"?>
<!-- Generator: Adobe Illustrator 18.1.1, SVG Export Plug-In . SVG Version: 6.00 Build 0)  -->
<svg version="1.1" id="Layer_1" xmlns="http://www.w3.org/2000/svg" xmlns:xlink="http://www.w3.org/1999/xlink" x="0px" y="0px"
	 viewBox="0 0 612 124" enable-background="new 0 0 612 124" xml:space="preserve">
<g>
	<g>
		<path fill="#4B4B4B" d="M459.1,38c-14.2,0-25.8,11.6-25.8,26.2s11.6,26.2,25.8,26.2c14.2,0,25.8-11.6,25.8-26.2S473.3,38,459.1,38
			z M459.1,79.6c-8.4,0-15.1-6.7-15.1-15.1c0-8.4,6.7-15.1,15.1-15.1s15.1,6.7,15.1,15.1C474.4,72.5,467.1,79.6,459.1,79.6z"/>
		<path fill="#4B4B4B" d="M516.5,50.5c-7.4,0-13.3,6.2-13.3,13.4v24.9H492V39.6h11.3v7.8c0,0,4.9-7.8,14.5-7.8h3.3v10.9H516.5
			L516.5,50.5z"/>
		<polygon fill="#4B4B4B" points="404.1,39.6 412.4,73.4 421.5,39.6 432.8,39.6 418.6,88.8 407.5,88.8 398.8,54.3 390.3,88.8 
			379.2,88.8 364.6,39.6 375.7,39.6 385.4,73.4 393.3,39.6 		"/>
	</g>
	<path fill="#4B4B4B" d="M553.9,62.1c7.8-4.5,13.3-12.9,13.3-22.5h-11.3c0,8.4-6.7,15.1-14.9,15.1h-1.6V15.6h-11.3v73.2h11.3V65.6
		h1.3c1.3,0,2.5,0.7,2.9,1.6l15.8,21.6h13.3L553.9,62.1z"/>
	<path fill="#4B4B4B" d="M338.7,38c-12.2,0-21.6,8-25.1,20.9c-5.8-9.1-10.4-19.3-12.9-28h-12.9V65c0,6.7-5.4,12.2-12.2,12.2
		s-12.2-5.4-12.2-12.2V30.9h-13.1V65c0,14.2,11.3,25.4,25.1,25.4c13.8,0,25.1-11.3,25.1-25.4v-5.8c2.5,5.1,5.8,10.7,9.3,15.4
		l-8,37.8h13.3l5.8-27.4c5.1,3.3,10.9,5.1,17.8,5.1c14.2,0,25.8-11.6,25.8-26.3C364.5,49.6,352.8,38,338.7,38z M338.7,76.8
		c-5.1,0-10.4-2.2-14.5-5.8l1.3-5.1v-0.4c0.9-5.4,3.8-14.9,13.4-14.9c7.1,0,12.9,5.8,12.9,12.9C351.6,71.2,345.4,76.8,338.7,76.8z"
		/>
</g>
<g enable-background="new    ">
	<path fill="#FFFFFF" d="M40.6,88.8l-12-49h9.5l4.7,22.2c1.2,6,2.4,12.2,3.2,17.1h0.1c0.8-5.2,2.2-11,3.6-17.1L55,39.9h9.4l4.9,22.5
		c1.2,5.8,2.3,11.3,3,16.6h0.1c0.9-5.4,2-11,3.3-17l5.1-22.1h9.1l-13.2,49h-9.5l-5.1-23c-1.2-5.6-2.1-10.2-2.8-15.5h-0.1
		c-0.8,5.2-1.7,10-3.2,15.5l-5.7,23H40.6z"/>
	<path fill="#FFFFFF" d="M120.2,80.3c0,3.2,0.1,6.3,0.6,8.5h-8.1l-0.7-3.9h-0.2c-2.1,2.8-5.8,4.7-10.5,4.7
		c-7.1,0-11.1-5.2-11.1-10.5c0-8.9,7.9-13.4,21-13.4v-0.6c0-2.3-0.9-6.2-7.2-6.2c-3.5,0-7.1,1.1-9.5,2.6l-1.7-5.8
		c2.6-1.6,7.2-3.1,12.8-3.1c11.3,0,14.6,7.2,14.6,15V80.3z M111.5,71.5c-6.3-0.1-12.4,1.2-12.4,6.6c0,3.5,2.3,5.1,5.1,5.1
		c3.6,0,6.2-2.3,7-4.9c0.2-0.7,0.2-1.3,0.2-2V71.5z"/>
	<path fill="#FFFFFF" d="M139.4,44.4v9.1h8.5v6.7h-8.5v15.6c0,4.4,1.2,6.5,4.6,6.5c1.6,0,2.5-0.1,3.5-0.4l0.1,6.8
		c-1.3,0.5-3.7,0.9-6.5,0.9c-3.3,0-6-1.1-7.7-2.9c-2-2-2.8-5.3-2.8-10V60.1h-5v-6.7h5v-6.6L139.4,44.4z"/>
	<path fill="#FFFFFF" d="M180.3,87.7c-1.9,0.9-5.6,1.8-10,1.8c-11,0-18.2-7.1-18.2-18.1c0-10.6,7.3-18.8,19.7-18.8
		c3.3,0,6.6,0.7,8.6,1.6l-1.6,6.8c-1.5-0.7-3.6-1.4-6.8-1.4c-6.8,0-10.9,5-10.8,11.5c0,7.3,4.7,11.4,10.8,11.4c3.1,0,5.3-0.7,7-1.4
		L180.3,87.7z"/>
	<path fill="#FFFFFF" d="M186.9,37.2h8.9v21h0.1c1.1-1.7,2.6-3.1,4.4-4c1.8-1,3.9-1.6,6.2-1.6c6,0,12.4,4,12.4,15.3v20.9H210V68.9
		c0-5.1-1.9-9-6.8-9c-3.5,0-6,2.3-7,5c-0.3,0.8-0.4,1.7-0.4,2.7v21.2h-8.9V37.2z"/>
</g>
</svg>
