<?xml version="1.0" encoding="UTF-8" standalone="no"?>
<!-- Generator: Adobe Illustrator 16.0.4, SVG Export Plug-In . SVG Version: 6.00 Build 0)  -->

<svg
   xmlns:dc="http://purl.org/dc/elements/1.1/"
   xmlns:cc="http://creativecommons.org/ns#"
   xmlns:rdf="http://www.w3.org/1999/02/22-rdf-syntax-ns#"
   xmlns:svg="http://www.w3.org/2000/svg"
   xmlns="http://www.w3.org/2000/svg"
   xmlns:sodipodi="http://sodipodi.sourceforge.net/DTD/sodipodi-0.dtd"
   xmlns:inkscape="http://www.inkscape.org/namespaces/inkscape"
   version="1.1"
   id="Layer_1"
   x="0px"
   y="0px"
   width="16.705999"
   height="16.707001"
   viewBox="0 0 16.705999 16.707001"
   enable-background="new 0 0 500 50"
   xml:space="preserve"
   inkscape:version="0.48.4 r9939"
   sodipodi:docname="search.svg"><metadata
     id="metadata11"><rdf:RDF><cc:Work
         rdf:about=""><dc:format>image/svg+xml</dc:format><dc:type
           rdf:resource="http://purl.org/dc/dcmitype/StillImage" /></cc:Work></rdf:RDF></metadata><defs
     id="defs9" /><sodipodi:namedview
     pagecolor="#ffffff"
     bordercolor="#666666"
     borderopacity="1"
     objecttolerance="10"
     gridtolerance="10"
     guidetolerance="10"
     inkscape:pageopacity="0"
     inkscape:pageshadow="2"
     inkscape:window-width="1366"
     inkscape:window-height="711"
     id="namedview7"
     showgrid="false"
     fit-margin-top="0"
     fit-margin-left="0"
     fit-margin-right="0"
     fit-margin-bottom="0"
     inkscape:zoom="0.66"
     inkscape:cx="11.999"
     inkscape:cy="10.57"
     inkscape:window-x="0"
     inkscape:window-y="24"
     inkscape:window-maximized="1"
     inkscape:current-layer="Layer_1" /><g
     id="g3"
     transform="translate(-238.001,-18.863)"><path
       d="m 253.422,35.57 c -0.342,0 -0.673,-0.141 -0.903,-0.382 l -3.444,-3.434 c -1.175,0.813 -2.58,1.245 -4.006,1.245 -3.905,0 -7.068,-3.162 -7.068,-7.068 0,-3.906 3.163,-7.068 7.068,-7.068 3.905,0 7.068,3.163 7.068,7.068 0,1.426 -0.432,2.832 -1.245,4.006 l 3.444,3.444 c 0.23,0.23 0.371,0.562 0.371,0.903 0,0.704 -0.582,1.286 -1.285,1.286 z m -8.354,-14.136 c -2.479,0 -4.498,2.018 -4.498,4.498 0,2.48 2.019,4.498 4.498,4.498 2.479,0 4.498,-2.018 4.498,-4.498 0,-2.48 -2.018,-4.498 -4.498,-4.498 z"
       id="path5"
       inkscape:connector-curvature="0"
       style="fill:#a2a2a1" /></g></svg>