<?xml version="1.0" encoding="utf-8"?>
<!-- Generator: Adobe Illustrator 18.1.1, SVG Export Plug-In . SVG Version: 6.00 Build 0)  -->
<svg version="1.1" id="Layer_1" xmlns="http://www.w3.org/2000/svg" xmlns:xlink="http://www.w3.org/1999/xlink" x="0px" y="0px"
	 viewBox="0 0 254.3 45.8" enable-background="new 0 0 254.3 45.8" xml:space="preserve">
<g>
	<path fill="#FFFFFF" d="M228,5.1c1.8,0,3.6,0,5.4,0c0,11.2,0,22.3,0,33.5c-1.8,0-3.6,0-5.4,0C228,27.5,228,16.3,228,5.1L228,5.1z"
		/>
	<path fill="#FFFFFF" d="M135.9,5.2c2.8-0.4,5.8,0.2,8.1,1.8c2.7,1.7,4.7,4.5,5.4,7.6c0.8,3.3,0.1,6.9-1.8,9.7
		c-3,4.5-9.1,6.6-14.2,4.7c-3.3-1.2-6.1-3.8-7.4-7.1c-1.4-3.4-1.1-7.3,0.6-10.5C128.4,8.1,132,5.7,135.9,5.2L135.9,5.2z M136.1,10.1
		c-1.8,0.4-3.4,1.4-4.5,2.8c-2.4,2.9-2,7.5,0.8,10c2.5,2.5,6.9,2.6,9.6,0.4c2.8-2.2,3.5-6.4,1.8-9.5
		C142.4,11.1,139.1,9.5,136.1,10.1L136.1,10.1z"/>
	<path fill="#FFFFFF" d="M152.5,5.1c4.7,0.1,9.4-0.3,14,0.6c3.1,0.6,6.1,2.1,8.3,4.5c2.9,3.2,4.4,7.4,4.5,11.7
		c0,6.3-3.7,12.8-9.7,15.2c-2.7,1.1-5.6,1.4-8.5,1.4c-2.8,0.1-5.7,0-8.5,0C152.5,27.5,152.5,16.3,152.5,5.1L152.5,5.1z M158.1,10.5
		c0,7.6,0,15.1,0,22.7c3,0,6.1,0.1,9-1.1c2.6-1.1,4.7-3.3,5.7-5.9c1.4-3.4,1-7.3-0.9-10.4c-1.2-2-3.1-3.5-5.3-4.3
		C163.9,10.5,161,10.6,158.1,10.5L158.1,10.5z"/>
	<path fill="#FFFFFF" d="M208.4,15.8c1.6-1.7,4-2.5,6.4-2.7c3.6-0.2,7.2,1.1,10.2,3c-0.9,1.3-1.9,2.6-2.9,3.9
		c-1.9-1.2-4.1-2.1-6.4-2.2c-1.1,0-2.2,0.1-3.1,0.8c-0.7,0.5-1,1.6-0.6,2.4c0.4,0.8,1.3,1.2,2,1.6c2.8,1.2,5.9,1.6,8.4,3.4
		c1.4,0.9,2.5,2.2,2.8,3.9c0.5,2.5-0.2,5.3-2.1,7.1c-1.8,1.7-4.3,2.3-6.6,2.4c-4.2,0.1-8.3-1.3-11.6-3.9c0.9-1.3,1.9-2.6,2.8-4
		c2.5,1.9,5.6,3.3,8.8,3.1c1.3-0.1,2.9-0.6,3.3-2c0.4-1-0.3-2.2-1.2-2.6c-2.7-1.4-5.8-1.7-8.5-3.1c-1.6-0.8-3-2.1-3.5-3.8
		C206,20.6,206.5,17.7,208.4,15.8L208.4,15.8z"/>
	<path fill="#FFFFFF" d="M242.2,13.7c2.1,0,4.2,0,6.4,0c-3,4.1-6,8.1-9,12.2c3.5,4.2,7,8.5,10.5,12.7c-2.4,0-4.9,0-7.3,0
		c-3-4.1-6.1-8.3-9.1-12.4C236.5,22,239.4,17.9,242.2,13.7L242.2,13.7z"/>
	<path fill="#FFFFFF" d="M186.2,15.2c3.2-2.1,7.4-2.5,11-1.3c2.5,0.8,4.6,2.7,5.9,5.1c1.5,2.8,2,6,1.8,9.1c-6.1,0-12.2,0-18.3,0
		c0.3,1.5,0.8,3,1.8,4.2c1.7,1.9,4.7,2.6,7.1,1.9c1.5-0.4,2.6-1.5,3.4-2.8c1.8,0,3.7,0.1,5.5,0.1c-1.1,3.3-4,6-7.3,7.1
		c-2.5,0.9-5.3,0.7-7.8,0c-2.9-0.8-5.5-2.8-7-5.5c-1.6-2.8-2-6.2-1.5-9.4C181.4,20.2,183.3,17,186.2,15.2L186.2,15.2z M188.9,19.5
		c-1.3,1.2-1.9,2.9-2.3,4.6c4.1,0,8.2,0,12.4,0c-0.2-1.6-0.8-3.3-2-4.5C194.9,17.4,191,17.4,188.9,19.5L188.9,19.5z"/>
	<path fill="#FFFFFF" d="M133.3,32.1c3.4-1.3,7.3-0.8,10.4,1.1c2.1,1.3,3.7,3.2,4.6,5.5c-7.3,0-14.6,0-21.9,0
		C127.7,35.6,130.3,33.2,133.3,32.1L133.3,32.1z"/>
</g>
<text transform="matrix(1 0 0 1 7.1577 38.632)" fill="#FFFFFF" font-family="'MyriadPro-Semibold'" font-size="40">Watch</text>
</svg>
