<?xml version="1.0" encoding="utf-8"?>
<!-- Generator: Adobe Illustrator 18.1.1, SVG Export Plug-In . SVG Version: 6.00 Build 0)  -->
<svg version="1.1" id="Layer_1" xmlns="http://www.w3.org/2000/svg" xmlns:xlink="http://www.w3.org/1999/xlink" x="0px" y="0px"
	 viewBox="275.1 255.7 336.9 64.7" enable-background="new 275.1 255.7 336.9 64.7" xml:space="preserve">
<g>
	<g>
		<path fill="#4B4B4B" d="M525.9,274c-7.8,0-14.2,6.4-14.2,14.4s6.4,14.4,14.2,14.4s14.2-6.4,14.2-14.4S533.7,274,525.9,274z
			 M525.9,296.9c-4.6,0-8.3-3.7-8.3-8.3c0-4.6,3.7-8.3,8.3-8.3s8.3,3.7,8.3,8.3C534.3,293,530.3,296.9,525.9,296.9z"/>
		<path fill="#4B4B4B" d="M557.5,280.9c-4.1,0-7.3,3.4-7.3,7.4V302H544v-27.1h6.2v4.3c0,0,2.7-4.3,8-4.3h1.8v6L557.5,280.9
			L557.5,280.9z"/>
		<polygon fill="#4B4B4B" points="495.6,274.9 500.2,293.5 505.2,274.9 511.4,274.9 503.6,302 497.5,302 492.7,283 488,302 
			481.9,302 473.9,274.9 480,274.9 485.3,293.5 489.7,274.9 		"/>
	</g>
	<path fill="#4B4B4B" d="M578.1,287.3c4.3-2.5,7.3-7.1,7.3-12.4h-6.2c0,4.6-3.7,8.3-8.2,8.3h-0.9v-21.5h-6.2V302h6.2v-12.8h0.7
		c0.7,0,1.4,0.4,1.6,0.9l8.7,11.9h7.3L578.1,287.3z"/>
	<path fill="#4B4B4B" d="M459.6,274c-6.7,0-11.9,4.4-13.8,11.5c-3.2-5-5.7-10.6-7.1-15.4h-7.1v18.8c0,3.7-3,6.7-6.7,6.7
		c-3.7,0-6.7-3-6.7-6.7v-18.8H411v18.8c0,7.8,6.2,14,13.8,14s13.8-6.2,13.8-14v-3.2c1.4,2.8,3.2,5.9,5.1,8.5l-4.4,20.8h7.3l3.2-15.1
		c2.8,1.8,6,2.8,9.8,2.8c7.8,0,14.2-6.4,14.2-14.5C473.8,280.4,467.4,274,459.6,274z M459.6,295.4c-2.8,0-5.7-1.2-8-3.2l0.7-2.8
		v-0.2c0.5-3,2.1-8.2,7.4-8.2c3.9,0,7.1,3.2,7.1,7.1C466.7,292.3,463.3,295.4,459.6,295.4z"/>
</g>
<g>
	<path fill="#4B4B4B" d="M829.5,662.6h-6.4v-2.3h15.6v2.3h-6.4v17.9h-2.3v-17.9H829.5z"/>
	<path fill="#4B4B4B" d="M842.8,660.3h2.3l6.9,11l6.9-11h2.3V680H859v-16.2l-6.9,10.4l0,0l-6.9-10.4V680h-2.3V660.3z"/>
</g>
<text transform="matrix(1 0 0 1 288.3331 302.008)" fill="#FFFFFF" font-family="'MyriadPro-Semibold'" font-size="40">Watch</text>
</svg>
