<?xml version="1.0" encoding="utf-8"?><svg version="1.1" id="Layer_1" xmlns="http://www.w3.org/2000/svg" xmlns:xlink="http://www.w3.org/1999/xlink" x="0px" y="0px" viewBox="-293 385 24 24" enable-background="new -293 385 24 24" xml:space="preserve"><path fill="#6FDA44" d="M-271.1,399.1h-1.4c-0.2,0.8-0.6,1.6-1,2.4l1,1c0.8,0.8,0.8,2.2,0,3c-0.8,0.8-2.2,0.8-3,0l-1-1c-0.7,0.4-1.5,0.8-2.4,1v1.4c0,1.2-0.9,2.1-2.1,2.1c-1.2,0-2.1-0.9-2.1-2.1v-1.4c-0.8-0.2-1.6-0.6-2.4-1l-1,1c-0.8,0.8-2.2,0.8-3,0c-0.8-0.8-0.8-2.2,0-3l1-1c-0.4-0.7-0.8-1.5-1-2.4h-1.4c-1.2,0-2.1-0.9-2.1-2.1s0.9-2.1,2.1-2.1h1.4c0.2-0.9,0.5-1.7,1-2.4l-1-1c-0.8-0.8-0.8-2.2,0-3c0.8-0.8,2.2-0.8,3,0l0.9,0.9c0.7-0.5,1.6-0.8,2.4-1v-1.3c0-1.2,0.9-2.1,2.1-2.1c1.2,0,2.1,0.9,2.1,2.1v1.3c0.9,0.2,1.7,0.6,2.4,1l0.9-0.9c0.8-0.8,2.2-0.8,3,0c0.8,0.8,0.8,2.2,0,3l-0.9,0.9c0.4,0.7,0.8,1.6,1,2.4h1.3c1.2,0,2.1,0.9,2.1,2.1C-269,398.2-269.9,399.1-271.1,399.1z M-281,392c-2.8,0-5,2.2-5,5c0,2.8,2.2,5,5,5s5-2.2,5-5C-276,394.2-278.2,392-281,392z"/></svg>